<?xml version="1.0" encoding="UTF-8"?>
<svg version="1.1" xmlns="http://www.w3.org/2000/svg" width="326" height="305">
<path d="M0 0 C58.08 0 116.16 0 176 0 C177.98 4.95 177.98 4.95 180 10 C184.2189971 19.94477887 190.29434268 25.92543148 200.34375 30.0390625 C206.77263691 32.36480688 212.64281315 33.2556103 219.484375 33.55859375 C222.54589368 34.09578569 223.85145363 34.74756787 226 37 C228.98903063 45.56316883 229.65171874 54.98822232 230 64 C230.061875 65.50820312 230.061875 65.50820312 230.125 67.046875 C231.13544729 118.83229852 217.52003331 170.536009 186 212 C185.29101562 212.94101563 184.58203125 213.88203125 183.8515625 214.8515625 C156.97919004 249.40175567 156.97919004 249.40175567 142.2421875 255.05859375 C141.13230469 255.52458984 141.13230469 255.52458984 140 256 C139.67 256.99 139.34 257.98 139 259 C137.42797852 260.28344727 137.42797852 260.28344727 135.37890625 261.56640625 C134.61723145 262.04706543 133.85555664 262.52772461 133.07080078 263.02294922 C132.24306152 263.53100098 131.41532227 264.03905273 130.5625 264.5625 C129.28608643 265.35551514 129.28608643 265.35551514 127.98388672 266.16455078 C120.13813661 270.99660556 112.17859411 275.60014446 104.03662109 279.91455078 C102.71809536 280.61727979 101.40541675 281.33113901 100.10009766 282.05810547 C98.39542675 283.00596726 96.66693883 283.91062075 94.9375 284.8125 C93.99777344 285.31394531 93.05804688 285.81539063 92.08984375 286.33203125 C84.50079377 287.97264762 76.52106484 282.46494589 70 279 C69.08935791 278.51869629 68.17871582 278.03739258 67.24047852 277.54150391 C38.97965978 262.37211198 12.54529162 241.58593237 -7 216 C-7.41813965 215.46358887 -7.8362793 214.92717773 -8.26708984 214.37451172 C-42.92219803 169.78182052 -57.80305208 111.63812546 -53.25 55.5625 C-53.17628174 54.6336499 -53.10256348 53.7047998 -53.02661133 52.74780273 C-52.46805546 47.00915062 -51.62628236 41.20086068 -49 36 C-45.47756829 33.6517122 -42.64234632 33.54001471 -38.5625 33.1875 C-26.23000309 31.85361669 -16.27773923 27.7084798 -8.3203125 17.9375 C-4.12519551 12.09355594 -2.56951335 7.0661617 0 0 Z M-1 11 C0 15 0 15 0 15 Z M176 12 C177 16 177 16 177 16 Z M0 16 C-0.02578125 17.19753906 -0.0515625 18.39507813 -0.078125 19.62890625 C-0.41220529 30.34823726 -1.69133481 39.74313792 -5 50 C-5.30679688 50.96550781 -5.61359375 51.93101563 -5.9296875 52.92578125 C-6.59378933 54.95919781 -7.29176522 56.98153087 -8 59 C-1.88082852 53.61227467 1.11503303 43.93941798 2 36 C2.31255862 29.25531391 2.23649281 22.64614886 1 16 C0.67 16 0.34 16 0 16 Z M175 16 C172.24586956 31.14771744 174.17157299 46.1139394 183 59 C183.66 59.33 184.32 59.66 185 60 C183.92534315 56.76603266 182.84217555 53.53537661 181.74609375 50.30859375 C181.30986262 49.0182404 180.8736651 47.72787568 180.4375 46.4375 C180.21642578 45.79103516 179.99535156 45.14457031 179.76757812 44.47851562 C177.51233667 37.78092546 176.77498312 31.69719038 176.4375 24.6875 C176.37272461 23.43356445 176.37272461 23.43356445 176.30664062 22.15429688 C176.20114693 20.10303065 176.10012685 18.0515352 176 16 C175.67 16 175.34 16 175 16 Z M24.06103516 35.35327148 C22.98499869 37.20424087 21.95688274 39.08471476 21 41 C13.36183842 50.41405923 1.7705397 56.81153403 -9 62 C-9.33 61.34 -9.66 60.68 -10 60 C-10.33 60.66 -10.66 61.32 -11 62 C-12.64363134 62.72159424 -14.31050386 63.39351421 -16 64 C-17.08201161 112.75710785 -3.19524469 160.97545112 27 200 C27.70511719 200.928125 28.41023438 201.85625 29.13671875 202.8125 C49.59839764 228.83400661 78.82304519 249.43517531 112 255 C113.66620486 255.03923197 115.33410627 255.05075303 117 255 C112.64797562 252.59521391 107.95927462 251.51020552 103.19140625 250.1953125 C99.83226157 248.93717508 97.65997066 247.37657191 95 245 C96.41539062 244.29037109 96.41539062 244.29037109 97.859375 243.56640625 C110.66679657 237.02098705 121.55201366 228.90481885 132 219 C132.94617188 218.11828125 133.89234375 217.2365625 134.8671875 216.328125 C165.30984944 187.38966527 184.78111225 143.10014368 191 102 C191.1038501 101.33476318 191.2077002 100.66952637 191.31469727 99.98413086 C192.31924874 92.50404547 192.109658 84.96765432 192.0625 77.4375 C192.05747366 76.03320473 192.05291276 74.6289077 192.04882812 73.22460938 C192.03711593 69.81636097 192.02071372 66.4082036 192 63 C190.824375 62.814375 190.824375 62.814375 189.625 62.625 C187 62 187 62 185 60 C185 60.66 185 61.32 185 62 C170.76182369 54.44322638 156.49358832 45.93066484 147.67681313 31.89333248 C146.16453219 29.82261616 146.16453219 29.82261616 143.84438133 29.47708225 C143.00341219 29.46648242 142.16244305 29.45588259 141.29598999 29.44496155 C140.32883057 29.42356613 139.36167114 29.40217072 138.36520386 29.38012695 C136.7755632 29.37577637 136.7755632 29.37577637 135.15380859 29.37133789 C134.03641296 29.35308456 132.91901733 29.33483124 131.76776123 29.31602478 C128.06119972 29.26259178 124.35533256 29.24029177 120.6484375 29.22265625 C118.07353585 29.20218922 115.49863555 29.18155196 112.92373657 29.16075134 C107.51827353 29.12321086 102.11309138 29.1038367 96.70751953 29.09399414 C90.47467889 29.08191038 84.24414932 29.01345011 78.01205957 28.91926771 C72.0045787 28.83166864 65.99837847 28.80518266 59.99019241 28.80059624 C57.44085536 28.79035047 54.89152277 28.76189013 52.34260178 28.71470833 C36.60419365 27.6520766 36.60419365 27.6520766 24.06103516 35.35327148 Z M118 255 C118 255.33 118 255.66 118 256 C120.31 256 122.62 256 125 256 C125 255.67 125 255.34 125 255 C122.69 255 120.38 255 118 255 Z M128 256 C128 256.33 128 256.66 128 257 C130.31 257 132.62 257 135 257 C135 256.67 135 256.34 135 256 C132.69 256 130.38 256 128 256 Z " fill="#C6C6C6" transform="translate(76,0)"/>
</svg>
